<svg width="537" height="404" viewBox="0 0 537 404" fill="none" xmlns="http://www.w3.org/2000/svg">
<g clip-path="url(#clip0)">
<path opacity="0.4" d="M453.224 155.322C460.33 155.322 466.091 149.556 466.091 142.443C466.091 135.329 460.33 129.563 453.224 129.563C446.117 129.563 440.356 135.329 440.356 142.443C440.356 149.556 446.117 155.322 453.224 155.322Z" fill="#4F95EC"/>
<path opacity="0.4" d="M181.93 84.4629C192.06 84.4629 200.273 76.2427 200.273 66.1025C200.273 55.9624 192.06 47.7421 181.93 47.7421C171.8 47.7421 163.587 55.9624 163.587 66.1025C163.587 76.2427 171.8 84.4629 181.93 84.4629Z" fill="#4F95EC"/>
<path opacity="0.4" d="M147.982 87.7514C155.089 87.7514 160.85 81.9849 160.85 74.8717C160.85 67.7584 155.089 61.992 147.982 61.992C140.876 61.992 135.115 67.7584 135.115 74.8717C135.115 81.9849 140.876 87.7514 147.982 87.7514Z" fill="#4F95EC"/>
<path d="M464 286.471C453.834 297.612 453.464 313.842 453.464 313.842C453.464 313.842 469.579 312.008 479.746 300.867C489.913 289.725 490.282 273.495 490.282 273.495C490.282 273.495 474.167 275.329 464 286.471Z" fill="#3F3D56"/>
<path d="M469.744 289.677C466.667 304.449 453.735 314.246 453.735 314.246C453.735 314.246 445.791 300.093 448.867 285.321C451.944 270.548 464.876 260.751 464.876 260.751C464.876 260.751 472.82 274.904 469.744 289.677Z" fill="#4F95EC"/>
<path d="M456.539 137.246V313.346L397.896 361.838H97.8804V177.23L185.42 137.246H456.539Z" fill="#3F3D56"/>
<path opacity="0.1" d="M456.539 137.246V137.951L435.487 152.057L397.896 177.23H97.8804L185.42 137.246H456.539Z" fill="black"/>
<path opacity="0.1" d="M456.539 137.246V313.346L397.896 361.838L398.321 176.805L435.487 152.057L456.199 137.246H456.539Z" fill="black"/>
<path d="M377.498 161.491H194.769L208.368 153.835H383.448L377.498 161.491Z" fill="#2F2E41"/>
<path d="M535.206 371.416C535.206 371.416 538.749 386.244 535.528 386.889C532.308 387.534 516.528 387.326 512.663 387.97C508.799 388.615 500.748 387.534 500.748 384.632C500.748 381.731 509.121 379.797 509.121 379.797C509.121 379.797 521.036 373.35 521.358 373.028C521.681 372.705 535.206 371.416 535.206 371.416Z" fill="#2F2E41"/>
<path d="M532.308 284.059C532.308 284.059 531.342 295.019 531.342 295.986C531.342 296.953 532.308 312.103 531.342 312.748C530.375 313.393 531.986 317.906 531.986 319.517C531.986 321.129 537.138 347.884 535.85 358.2C534.562 368.515 537.782 367.548 536.816 368.515C535.85 369.482 535.85 369.482 535.85 371.416C535.85 373.35 525.545 374.962 525.545 374.962L514.273 303.722L520.07 282.447L532.308 284.059Z" fill="#575A89"/>
<path opacity="0.1" d="M532.308 284.059C532.308 284.059 531.342 295.019 531.342 295.986C531.342 296.953 532.308 312.103 531.342 312.748C530.375 313.393 531.986 317.906 531.986 319.517C531.986 321.129 537.138 347.884 535.85 358.2C534.562 368.515 537.782 367.548 536.816 368.515C535.85 369.482 535.85 369.482 535.85 371.416C535.85 373.35 525.545 374.962 525.545 374.962L514.273 303.722L520.07 282.447L532.308 284.059Z" fill="black"/>
<path d="M530.697 375.929C530.697 375.929 533.918 387.534 530.697 388.178C527.477 388.823 511.697 387.44 507.832 388.084C503.968 388.729 495.917 388.823 495.917 385.922C495.917 383.021 504.29 381.087 504.29 381.087C504.29 381.087 516.205 374.639 516.527 374.317C516.85 373.995 530.697 375.929 530.697 375.929Z" fill="#2F2E41"/>
<path d="M535.206 271.165C535.206 271.165 539.07 280.513 534.562 285.348C530.053 290.183 524.901 299.854 524.901 300.499C524.901 301.143 533.918 365.291 532.63 369.482C531.341 373.672 531.663 376.251 531.986 376.896C532.308 377.541 528.765 381.087 524.901 381.087C521.036 381.087 515.239 378.185 514.595 375.607C513.951 373.028 515.562 350.785 515.239 346.595C514.917 342.404 513.307 336.28 512.663 334.99C512.019 333.701 508.477 332.411 507.833 328.543C507.189 324.675 502.036 275.355 503.646 273.743C505.256 272.132 535.206 271.165 535.206 271.165Z" fill="#575A89"/>
<path d="M510.731 197.024C516.778 197.024 521.68 192.117 521.68 186.064C521.68 180.011 516.778 175.104 510.731 175.104C504.684 175.104 499.782 180.011 499.782 186.064C499.782 192.117 504.684 197.024 510.731 197.024Z" fill="#FFB9B9"/>
<path d="M517.494 191.544C517.494 191.544 515.239 203.471 516.85 204.76C518.46 206.05 504.612 207.984 504.612 207.984C504.612 207.984 503.002 192.189 502.68 190.577C502.358 188.965 517.494 191.544 517.494 191.544Z" fill="#FFB9B9"/>
<path d="M502.68 207.017C502.68 207.017 506.545 195.734 522.325 198.958C522.325 198.958 525.223 199.925 524.257 200.892C523.291 201.859 522.325 201.859 523.613 202.826C524.901 203.793 526.511 202.826 525.545 203.793C524.579 204.76 534.24 210.563 533.596 221.522C532.952 232.482 535.85 247.955 533.596 250.534C531.342 253.113 535.206 264.395 534.562 266.652C533.918 268.908 538.426 271.809 536.494 272.776C534.562 273.743 499.782 279.546 498.816 272.776C497.85 266.007 498.494 270.842 497.528 269.231C496.561 267.619 496.239 264.718 496.883 261.172C497.528 257.626 499.138 248.922 498.494 245.699C497.85 242.475 498.494 215.398 500.426 212.174C502.358 208.951 502.68 207.017 502.68 207.017Z" fill="#4F95EC"/>
<path d="M509.443 285.67C509.443 285.67 514.273 304.044 508.155 304.044C502.036 304.044 502.358 285.026 502.358 285.026L509.443 285.67Z" fill="#FFB9B9"/>
<path d="M505.9 186.064C505.9 186.999 507.253 187.592 509.349 187.727H509.353C510.241 187.778 511.133 187.761 512.019 187.676C513.359 187.553 513.913 188.814 514.141 190.477C514.515 193.22 513.993 197.066 514.595 197.669C515.426 198.5 521.484 197.665 523.377 195.78C523.672 195.515 523.869 195.158 523.935 194.767C524.133 193.616 524.701 192.56 525.551 191.76C526.669 190.538 528.26 189.184 530.053 187.031C533.274 183.163 530.053 182.84 529.087 179.939C528.121 177.038 526.511 176.071 526.511 174.137C526.511 172.203 519.104 170.591 512.985 170.913C506.867 171.236 508.155 178.972 508.155 178.972C508.155 178.972 507.791 179.907 507.356 181.113C506.768 182.625 506.29 184.179 505.926 185.761C505.911 185.861 505.902 185.962 505.9 186.064Z" fill="#2F2E41"/>
<path opacity="0.1" d="M507.189 211.852C507.189 211.852 518.138 211.207 519.104 227.325C520.07 243.442 519.748 258.593 519.748 258.915C519.748 259.238 515.24 289.861 511.053 289.861C506.867 289.861 503.646 289.216 502.68 287.605C501.714 285.993 505.256 262.784 505.256 262.784C505.256 262.784 506.867 238.285 504.29 230.548C501.714 222.812 501.392 212.819 507.189 211.852Z" fill="black"/>
<path d="M505.578 210.24C505.578 210.24 516.528 209.596 517.494 225.713C518.46 241.831 518.138 256.981 518.138 257.304C518.138 257.626 513.629 288.249 509.443 288.249C505.256 288.249 502.036 287.605 501.07 285.993C500.104 284.381 503.646 261.172 503.646 261.172C503.646 261.172 505.256 236.673 502.68 228.937C500.104 221.2 499.782 211.207 505.578 210.24Z" fill="#4F95EC"/>
<path d="M324.015 52.6708C324.015 52.6708 319.243 39.1376 315.797 43.3833C312.35 47.629 321.099 54.7936 321.099 54.7936L324.015 52.6708Z" fill="#A0616A"/>
<path d="M346.548 39.403L343.677 40.4678C343.677 40.4678 342.306 46.5676 342.836 47.629C343.367 48.6904 343.632 47.8943 342.836 50.0172C342.041 52.14 339.655 57.7125 339.39 58.5086C339.125 59.3046 324.014 53.4668 324.014 50.5479C324.014 50.5479 320.833 54.2629 319.243 55.0589C319.243 55.0589 336.739 67.796 339.125 69.3882C341.511 70.9803 342.836 70.1842 344.957 68.3267C347.078 66.4692 356.091 51.0786 356.091 51.0786L346.548 39.403Z" fill="#575A89"/>
<path d="M338.86 133.604C338.86 133.604 339.125 136.523 339.655 136.789C340.185 137.054 344.162 143.688 339.655 145.015C335.149 146.341 332.498 145.811 331.437 146.341C330.377 146.872 311.82 147.933 311.555 145.015C311.29 142.096 320.568 141.565 320.568 141.565C320.568 141.565 329.051 135.992 330.377 133.074C331.702 130.155 338.86 133.604 338.86 133.604Z" fill="#2F2E41"/>
<path d="M392.675 138.911C392.675 138.911 399.038 149.791 397.447 151.118C395.856 152.445 380.366 157.28 378.095 157.486C375.179 157.752 373.058 155.364 375.444 154.037C377.83 152.71 382.867 147.137 382.867 145.28V140.504L392.675 138.911Z" fill="#2F2E41"/>
<path d="M398.773 67.7961C398.773 67.7961 404.34 74.6954 395.591 85.8403L381.011 104.415C381.011 104.415 390.024 118.744 390.289 126.174C390.555 133.604 392.41 132.012 392.94 135.196C393.471 138.381 395.857 136.789 394.001 139.177C392.145 141.565 385.253 143.688 383.132 141.83C382.402 141.162 381.833 140.338 381.466 139.419C381.098 138.501 380.943 137.511 381.011 136.523C381.011 135.462 377.3 129.359 377.035 127.501C376.769 125.644 366.961 110.518 366.961 110.518C366.961 110.518 363.78 101.496 367.491 96.4545C371.202 91.4127 373.655 84.2621 373.655 84.2621C373.655 84.2621 362.719 97.5159 355.031 100.7C355.031 100.7 352.115 101.231 352.645 102.558C353.176 103.884 352.645 104.681 351.85 106.007C351.055 107.334 345.488 122.725 343.632 126.705C341.776 130.685 342.572 133.074 340.451 134.4C338.33 135.727 328.787 134.666 328.787 133.339C328.787 132.012 330.112 128.563 330.907 126.705C331.703 124.848 338.065 103.354 337.535 99.6388C337.005 95.9238 337.8 90.882 341.776 88.7592C345.753 86.6364 365.9 69.3882 366.961 69.3882C368.021 69.3882 398.773 67.7961 398.773 67.7961Z" fill="#2F2E41"/>
<path d="M345.488 26.1352C351.637 26.1352 356.622 21.1455 356.622 14.9903C356.622 8.8351 351.637 3.84534 345.488 3.84534C339.338 3.84534 334.354 8.8351 334.354 14.9903C334.354 21.1455 339.338 26.1352 345.488 26.1352Z" fill="#A0616A"/>
<path d="M354.501 16.0517C354.501 16.0517 357.947 22.1549 362.189 22.951C366.43 23.7471 351.055 35.9534 351.055 35.9534C351.055 35.9534 347.343 24.2778 344.162 23.747C340.981 23.2163 354.501 16.0517 354.501 16.0517Z" fill="#A0616A"/>
<path d="M343.632 40.9951C343.632 44.4448 353.971 54.2629 353.971 54.2629L363.779 62.4889C363.779 62.4889 364.044 65.4078 365.105 65.6732C366.165 65.9385 367.491 65.9386 366.43 67.5307C365.37 69.1228 362.719 72.5724 365.105 73.1032C365.824 73.2127 366.549 73.2818 367.276 73.3101C367.912 73.3473 368.66 73.3818 369.5 73.4136C371.462 73.4826 373.917 73.5277 376.576 73.5091C377.331 73.5065 378.1 73.4977 378.882 73.4826C388.905 73.2836 400.517 72.1293 399.568 68.3268C397.977 61.9582 399.037 59.8354 395.591 56.3857C392.145 52.9361 386.578 40.9951 386.578 40.9951C386.578 40.9951 375.444 22.1548 366.165 22.1548L364.238 21.648C363.342 21.4119 362.395 21.4637 361.531 21.7961C360.666 22.1285 359.928 22.7247 359.421 23.5002C357.56 26.3369 354.625 30.5985 352.91 31.973C350.259 34.0958 349.846 32.5727 349.846 32.5727C349.846 32.5727 343.632 37.5455 343.632 40.9951Z" fill="#575A89"/>
<path d="M367.226 81.3292C367.226 81.3292 359.538 93.2702 364.309 95.393C369.081 97.5159 371.732 82.9213 371.732 82.9213L367.226 81.3292Z" fill="#A0616A"/>
<path d="M352.767 13.7314C352.339 13.6775 352.204 13.1378 352.132 12.7127C351.747 10.4364 350.052 8.27787 347.775 7.91041C346.905 7.79451 346.02 7.8659 345.179 8.11982C343.975 8.45056 342.845 9.00748 341.848 9.76091C341.361 10.207 340.797 10.5614 340.184 10.8071C339.766 10.9299 337.992 11.7194 337.578 11.853C336.666 12.1466 335.912 13.1014 334.974 12.9123C334.076 12.7315 333.735 11.6462 333.591 10.7408C333.262 8.67826 334.441 5.60074 335.614 3.8731C336.504 2.56207 338.01 1.80755 339.515 1.31669C341.279 0.780754 343.091 0.420284 344.926 0.240511C347.403 -0.0522589 349.968 -0.207589 352.341 0.55867C354.714 1.32493 356.875 3.19937 357.318 5.65586C357.411 6.16756 357.428 6.69169 357.541 7.1992C357.817 8.43725 358.635 9.47791 359.113 10.6529C359.457 11.5159 359.617 12.4416 359.582 13.3702C359.547 14.2988 359.318 15.2098 358.91 16.0444C358.249 17.3751 357.1 18.6538 357.348 20.119L355.302 18.5043C355.006 18.3362 354.777 18.0717 354.653 17.7549C354.529 17.4381 354.517 17.0882 354.619 16.7637L354.916 14.1996C355.019 13.7351 354.973 13.2499 354.784 12.8134C353.875 11.2235 353.479 13.8214 352.767 13.7314Z" fill="#2F2E41"/>
<path opacity="0.1" d="M371.998 63.0197L369.5 73.4136C372.019 73.5039 375.351 73.5516 378.882 73.4826C379.773 70.8079 380.624 68.019 381.276 65.4079C383.662 55.8551 379.685 41.2605 377.565 34.3612C375.444 27.462 370.142 25.6045 370.142 25.6045C367.968 26.3697 365.915 27.4419 364.045 28.7888C360.598 31.177 371.998 63.0197 371.998 63.0197Z" fill="black"/>
<path opacity="0.1" d="M369.876 62.4889L367.276 73.3101C367.912 73.3473 368.66 73.3818 369.5 73.4136C371.462 73.4826 373.916 73.5277 376.575 73.5092C377.532 70.6672 378.458 67.6687 379.155 64.8771C381.541 55.3243 377.564 40.7298 375.443 33.8305C373.323 26.9313 368.683 34.4939 368.683 34.4939C368.683 34.4939 370.539 29.9828 367.093 32.371C363.647 34.7592 369.876 62.4889 369.876 62.4889Z" fill="black"/>
<path d="M369.081 25.0738C369.081 25.0738 374.383 26.9313 376.504 33.8305C378.625 40.7298 382.601 55.3243 380.216 64.8771C377.83 74.43 372.793 86.371 372.793 86.371C372.793 86.371 367.756 82.656 365.9 83.4521L370.937 62.4889C370.937 62.4889 359.538 30.6463 362.984 28.2581C364.855 26.9112 366.908 25.839 369.081 25.0738Z" fill="#575A89"/>
<path d="M373.033 158.174L299.689 5.18707L177.052 64.0953L222.155 158.174H373.033Z" fill="#F2F2F2"/>
<path d="M274.869 65.2379L209.732 96.5262L211.673 100.573L276.81 69.2848L274.869 65.2379Z" fill="#3F3D56"/>
<path d="M292.115 101.21L226.978 132.499L228.918 136.546L294.055 105.257L292.115 101.21Z" fill="#3F3D56"/>
<path d="M303.962 44.072L287.79 51.8401L295.55 68.0277L311.722 60.2596L303.962 44.072Z" fill="#3F3D56"/>
<path d="M321.208 80.0444L305.036 87.8126L312.796 104L328.968 96.2321L321.208 80.0444Z" fill="#3F3D56"/>
<path d="M305.076 32.8594L298.416 51.8274L289.438 48.6686L288.209 52.1676L300.671 56.5515L308.571 34.0892L305.076 32.8594Z" fill="#57B894"/>
<path d="M322.321 68.8318L315.661 87.7998L306.684 84.6416L305.455 88.14L317.917 92.5239L325.817 70.0616L322.321 68.8318Z" fill="#57B894"/>
<path d="M7.07804 334.252L40.2144 327.167L33.1362 293.999L-0.000154079 301.084L7.07804 334.252Z" fill="#F2F2F2"/>
<path d="M39.2931 285.136C39.2931 285.136 27.122 293.839 31.179 297.319C35.2361 300.8 43.3501 286.877 43.3501 286.877L39.2931 285.136Z" fill="#FFB9B9"/>
<path d="M95.5117 298.48C95.5117 298.48 93.1934 327.486 92.6138 331.547C92.0343 335.608 91.4547 372.157 90.2955 376.218C89.1364 380.279 87.9772 390.141 87.9772 390.141H81.0224C81.0224 390.141 81.6019 372.157 79.8632 365.195C78.1245 358.234 78.7041 339.089 78.7041 339.089C78.7041 339.089 75.2266 304.861 76.9654 300.22C78.7041 295.579 95.5117 298.48 95.5117 298.48Z" fill="#FFB9B9"/>
<path d="M86.2385 388.401C86.2385 388.401 89.1364 390.141 89.1364 391.301C89.1364 392.462 88.5569 395.362 89.1364 396.523C89.716 397.683 93.773 402.324 91.4547 403.484C89.1364 404.645 78.7041 403.484 78.7041 403.484C78.7041 403.484 79.2837 395.362 79.8632 394.782C80.4428 394.202 79.2837 388.401 79.2837 388.401H86.2385Z" fill="#2F2E41"/>
<path d="M51.2063 297.769C51.2063 297.769 50.47 326.859 50.6206 330.958C50.7711 335.058 47.5148 371.465 48.2417 375.626C48.9686 379.786 49.0871 389.716 49.0871 389.716L56.0036 390.446C56.0036 390.446 57.3131 372.501 59.7723 365.76C62.2314 359.02 63.6626 339.92 63.6626 339.92C63.6626 339.92 70.7102 306.246 69.4677 301.448C68.2253 296.65 51.2063 297.769 51.2063 297.769Z" fill="#FFB9B9"/>
<path d="M50.9991 388.167C50.9991 388.167 47.9347 389.594 47.8131 390.748C47.6914 391.901 47.9636 394.847 47.2655 395.94C46.5675 397.033 42.0462 401.222 44.23 402.62C46.4138 404.017 56.9102 403.959 56.9102 403.959C56.9102 403.959 57.1855 395.821 56.67 395.183C56.1545 394.546 57.9156 388.898 57.9156 388.898L50.9991 388.167Z" fill="#2F2E41"/>
<path d="M87.3975 254.969C87.3975 254.969 92.0341 255.55 93.7729 265.412C95.5116 275.274 101.887 300.22 96.6707 301.96C91.4546 303.701 75.8061 307.182 75.2265 306.021C74.6469 304.861 73.4878 301.96 73.4878 301.96C73.4878 301.96 75.2265 307.182 72.9082 307.182C70.5899 307.182 47.9866 303.701 48.5661 301.96C49.1457 300.22 50.3048 287.457 50.3048 287.457C50.3048 287.457 53.7823 265.992 57.2597 262.511C58.2661 261.544 59.0475 260.367 59.5483 259.064C60.0491 257.76 60.2571 256.362 60.1576 254.969H87.3975Z" fill="#2F2E41"/>
<path d="M96.091 250.328C96.091 250.328 88.5566 248.588 87.3974 250.909C86.2383 253.229 90.2953 256.71 92.034 256.71C93.7727 256.71 96.6706 254.97 96.6706 254.97L96.091 250.328Z" fill="#FFB9B9"/>
<path d="M80.4426 201.017C86.2042 201.017 90.8749 196.342 90.8749 190.574C90.8749 184.807 86.2042 180.132 80.4426 180.132C74.681 180.132 70.0103 184.807 70.0103 190.574C70.0103 196.342 74.681 201.017 80.4426 201.017Z" fill="#FFB9B9"/>
<path d="M78.7041 198.116C78.7041 198.116 76.9653 206.238 78.1245 206.238C79.2836 206.238 69.4309 211.459 69.4309 211.459L61.8964 210.299L59.5781 206.818C59.5781 206.818 71.7492 198.696 71.7492 194.055C71.7492 189.414 78.7041 198.116 78.7041 198.116Z" fill="#FFB9B9"/>
<path d="M73.4875 206.238C73.4875 206.238 75.2262 205.078 75.8058 205.078H80.4424C81.022 205.078 88.5565 206.818 88.5565 206.818L93.1931 232.924C93.1931 232.924 85.079 246.267 90.8748 256.71C90.8748 256.71 89.1361 255.55 81.022 256.13C72.908 256.71 58.4186 258.45 57.839 258.45C57.2595 258.45 57.2595 253.809 57.839 252.649C58.4186 251.489 57.2595 252.069 57.2595 249.168C57.2595 246.267 55.5208 241.046 55.5208 241.046L47.4067 211.459C47.4067 211.459 57.8391 205.658 59.5778 206.238C61.3165 206.818 66.5327 208.559 67.6918 207.978C68.851 207.398 73.4875 206.238 73.4875 206.238Z" fill="#4F95EC"/>
<path d="M86.8179 207.398L88.5566 206.818C88.5566 206.818 92.034 206.238 96.091 209.719C100.148 213.2 115.217 223.642 115.217 223.642C115.217 223.642 121.013 228.283 119.274 233.504C117.535 238.726 114.637 251.489 105.944 250.909C105.944 250.909 100.728 257.87 97.8298 256.71C94.9319 255.55 92.6136 250.909 94.3523 250.328C96.0911 249.748 100.728 243.947 100.728 243.947L94.9319 232.924H93.1932L86.8179 229.443L86.8179 207.398Z" fill="#4F95EC"/>
<path d="M52.0435 210.879L47.4069 211.459C47.4069 211.459 43.3499 213.2 43.9295 220.741C44.509 228.283 40.452 262.511 42.1907 266.572C42.1907 266.572 36.395 286.297 37.5542 286.877C38.7133 287.457 45.6682 290.938 45.0886 288.617C44.509 286.297 51.4639 270.053 51.4639 270.053C51.4639 270.053 59.5779 261.351 56.1005 249.168V239.306L52.0435 210.879Z" fill="#4F95EC"/>
<path d="M89.1254 200.67L81.7575 202.277L80.8107 198.645L81.1747 202.404L69.2887 204.996L68.766 202.991L68.9669 205.066L61.3541 206.726L59.7255 191.078C58.0512 184.657 64.1618 177.813 70.5768 176.137L73.4226 175.394C78.1342 174.163 86.6986 175.282 87.9282 179.998C85.7759 188.221 82.1069 197.235 89.1254 200.67Z" fill="#2F2E41"/>
</g>
<defs>
<clipPath id="clip0">
<rect width="537" height="404" fill="white"/>
</clipPath>
</defs>
</svg>
